<mxfile host="app.diagrams.net" agent="Mozilla/5.0 (Windows NT 10.0; Win64; x64; rv:127.0) Gecko/20100101 Firefox/127.0" version="24.8.3">
  <diagram name="Page-1" id="9egSyZim5MgnGCOICIjD">
    <mxGraphModel dx="2632" dy="930" grid="1" gridSize="10" guides="1" tooltips="1" connect="1" arrows="1" fold="1" page="1" pageScale="1" pageWidth="850" pageHeight="1100" math="0" shadow="0">
      <root>
        <mxCell id="0" />
        <mxCell id="1" parent="0" />
        <mxCell id="O2gGplANYjAnvR2QXnQA-1" value="&lt;b&gt;GameEngineWindow&lt;/b&gt;" style="rounded=0;whiteSpace=wrap;html=1;" vertex="1" parent="1">
          <mxGeometry x="20" y="40" width="140" height="60" as="geometry" />
        </mxCell>
        <mxCell id="O2gGplANYjAnvR2QXnQA-2" value="" style="endArrow=none;dashed=1;html=1;rounded=0;entryX=0.5;entryY=1;entryDx=0;entryDy=0;strokeWidth=3;" edge="1" parent="1" source="O2gGplANYjAnvR2QXnQA-3" target="O2gGplANYjAnvR2QXnQA-1">
          <mxGeometry width="50" height="50" relative="1" as="geometry">
            <mxPoint x="90" y="1040" as="sourcePoint" />
            <mxPoint x="140" y="200" as="targetPoint" />
          </mxGeometry>
        </mxCell>
        <mxCell id="O2gGplANYjAnvR2QXnQA-5" value="" style="endArrow=none;dashed=1;html=1;rounded=0;entryX=0.5;entryY=1;entryDx=0;entryDy=0;strokeWidth=3;" edge="1" parent="1" target="O2gGplANYjAnvR2QXnQA-3">
          <mxGeometry width="50" height="50" relative="1" as="geometry">
            <mxPoint x="90" y="1640" as="sourcePoint" />
            <mxPoint x="90" y="100" as="targetPoint" />
          </mxGeometry>
        </mxCell>
        <mxCell id="O2gGplANYjAnvR2QXnQA-3" value="" style="rounded=0;whiteSpace=wrap;html=1;" vertex="1" parent="1">
          <mxGeometry x="85" y="120" width="12.8" height="1410" as="geometry" />
        </mxCell>
        <mxCell id="O2gGplANYjAnvR2QXnQA-6" value="&lt;b&gt;Loop&lt;/b&gt;" style="shape=umlFrame;whiteSpace=wrap;html=1;pointerEvents=0;recursiveResize=0;container=1;collapsible=0;width=70;height=30;movable=0;resizable=0;rotatable=0;deletable=0;editable=0;locked=1;connectable=0;" vertex="1" parent="1">
          <mxGeometry x="-270" y="500" width="1600" height="840" as="geometry" />
        </mxCell>
        <mxCell id="O2gGplANYjAnvR2QXnQA-7" value="&lt;b&gt;WinMain&lt;/b&gt;" style="rounded=0;whiteSpace=wrap;html=1;" vertex="1" parent="1">
          <mxGeometry x="-220" y="40" width="140" height="60" as="geometry" />
        </mxCell>
        <mxCell id="O2gGplANYjAnvR2QXnQA-8" value="" style="endArrow=none;dashed=1;html=1;rounded=0;entryX=0.5;entryY=1;entryDx=0;entryDy=0;strokeWidth=3;" edge="1" parent="1" source="O2gGplANYjAnvR2QXnQA-10" target="O2gGplANYjAnvR2QXnQA-7">
          <mxGeometry width="50" height="50" relative="1" as="geometry">
            <mxPoint x="-150" y="1240" as="sourcePoint" />
            <mxPoint x="-155" y="140" as="targetPoint" />
          </mxGeometry>
        </mxCell>
        <mxCell id="O2gGplANYjAnvR2QXnQA-11" value="" style="endArrow=none;dashed=1;html=1;rounded=0;entryX=0.5;entryY=1;entryDx=0;entryDy=0;strokeWidth=3;" edge="1" parent="1" target="O2gGplANYjAnvR2QXnQA-10">
          <mxGeometry width="50" height="50" relative="1" as="geometry">
            <mxPoint x="-150" y="1640" as="sourcePoint" />
            <mxPoint x="-150" y="100" as="targetPoint" />
          </mxGeometry>
        </mxCell>
        <mxCell id="O2gGplANYjAnvR2QXnQA-10" value="" style="rounded=0;whiteSpace=wrap;html=1;" vertex="1" parent="1">
          <mxGeometry x="-155" y="120" width="10" height="1480" as="geometry" />
        </mxCell>
        <mxCell id="O2gGplANYjAnvR2QXnQA-12" value="&lt;font style=&quot;font-size: 16px;&quot;&gt;Init()&lt;/font&gt;" style="html=1;verticalAlign=bottom;labelBackgroundColor=none;endArrow=block;endFill=1;endSize=6;align=left;rounded=0;exitX=0.929;exitY=0.038;exitDx=0;exitDy=0;exitPerimeter=0;entryX=0.071;entryY=0.039;entryDx=0;entryDy=0;entryPerimeter=0;" edge="1" parent="1">
          <mxGeometry x="-0.2592" y="-1" relative="1" as="geometry">
            <mxPoint x="-145.00000000000003" y="154.37000000000003" as="sourcePoint" />
            <mxPoint x="86.61879999999992" y="155.64000000000001" as="targetPoint" />
            <mxPoint as="offset" />
          </mxGeometry>
        </mxCell>
        <mxCell id="O2gGplANYjAnvR2QXnQA-13" value="&lt;font style=&quot;font-size: 16px;&quot;&gt;Update()&lt;/font&gt;" style="html=1;verticalAlign=bottom;labelBackgroundColor=none;endArrow=block;endFill=1;endSize=6;align=left;rounded=0;entryX=0.032;entryY=0.314;entryDx=0;entryDy=0;entryPerimeter=0;exitX=1.078;exitY=0.299;exitDx=0;exitDy=0;exitPerimeter=0;" edge="1" parent="1">
          <mxGeometry x="-0.2592" y="-1" relative="1" as="geometry">
            <mxPoint x="-144.63000000000025" y="580" as="sourcePoint" />
            <mxPoint x="84.99959999999996" y="580.22" as="targetPoint" />
            <mxPoint as="offset" />
          </mxGeometry>
        </mxCell>
        <mxCell id="O2gGplANYjAnvR2QXnQA-17" value="" style="group" vertex="1" connectable="0" parent="1">
          <mxGeometry x="-200" y="520" width="160" height="30" as="geometry" />
        </mxCell>
        <mxCell id="O2gGplANYjAnvR2QXnQA-16" value="" style="rounded=0;whiteSpace=wrap;html=1;strokeColor=#FAFCF9;" vertex="1" parent="O2gGplANYjAnvR2QXnQA-17">
          <mxGeometry width="160" height="30" as="geometry" />
        </mxCell>
        <mxCell id="O2gGplANYjAnvR2QXnQA-15" value="[while window is running]" style="text;html=1;align=center;" vertex="1" parent="O2gGplANYjAnvR2QXnQA-17">
          <mxGeometry width="160" height="30" as="geometry" />
        </mxCell>
        <mxCell id="O2gGplANYjAnvR2QXnQA-23" value="" style="group;movable=1;resizable=1;rotatable=1;deletable=1;editable=1;locked=0;connectable=1;" vertex="1" connectable="0" parent="1">
          <mxGeometry x="420" y="40" width="140" height="1490" as="geometry" />
        </mxCell>
        <mxCell id="O2gGplANYjAnvR2QXnQA-18" value="&lt;b&gt;EngineTime&lt;/b&gt;" style="rounded=0;whiteSpace=wrap;html=1;" vertex="1" parent="O2gGplANYjAnvR2QXnQA-23">
          <mxGeometry width="140" height="60" as="geometry" />
        </mxCell>
        <mxCell id="O2gGplANYjAnvR2QXnQA-19" value="" style="endArrow=none;dashed=1;html=1;rounded=0;entryX=0.5;entryY=1;entryDx=0;entryDy=0;strokeWidth=3;" edge="1" parent="O2gGplANYjAnvR2QXnQA-23" source="O2gGplANYjAnvR2QXnQA-20" target="O2gGplANYjAnvR2QXnQA-18">
          <mxGeometry width="50" height="50" relative="1" as="geometry">
            <mxPoint x="70" y="1027.5862068965516" as="sourcePoint" />
            <mxPoint x="-140" y="59.94252873563219" as="targetPoint" />
          </mxGeometry>
        </mxCell>
        <mxCell id="O2gGplANYjAnvR2QXnQA-21" value="" style="endArrow=none;dashed=1;html=1;rounded=0;entryX=0.5;entryY=1;entryDx=0;entryDy=0;strokeWidth=3;" edge="1" parent="O2gGplANYjAnvR2QXnQA-23" target="O2gGplANYjAnvR2QXnQA-20">
          <mxGeometry width="50" height="50" relative="1" as="geometry">
            <mxPoint x="70" y="1600" as="sourcePoint" />
            <mxPoint x="70" y="51.37931034482759" as="targetPoint" />
          </mxGeometry>
        </mxCell>
        <mxCell id="O2gGplANYjAnvR2QXnQA-20" value="" style="rounded=0;whiteSpace=wrap;html=1;" vertex="1" parent="O2gGplANYjAnvR2QXnQA-23">
          <mxGeometry x="65" y="145.57471264367817" width="10" height="1344.4252873563219" as="geometry" />
        </mxCell>
        <mxCell id="O2gGplANYjAnvR2QXnQA-24" value="" style="group;movable=1;resizable=1;rotatable=1;deletable=1;editable=1;locked=0;connectable=1;" vertex="1" connectable="0" parent="1">
          <mxGeometry x="220" y="40" width="140" height="1400" as="geometry" />
        </mxCell>
        <mxCell id="O2gGplANYjAnvR2QXnQA-25" value="&lt;b&gt;GraphicsEngine&lt;/b&gt;" style="rounded=0;whiteSpace=wrap;html=1;movable=1;resizable=1;rotatable=1;deletable=1;editable=1;locked=0;connectable=1;" vertex="1" parent="O2gGplANYjAnvR2QXnQA-24">
          <mxGeometry width="140" height="60" as="geometry" />
        </mxCell>
        <mxCell id="O2gGplANYjAnvR2QXnQA-26" value="" style="endArrow=none;dashed=1;html=1;rounded=0;entryX=0.5;entryY=1;entryDx=0;entryDy=0;strokeWidth=3;" edge="1" parent="O2gGplANYjAnvR2QXnQA-24" source="O2gGplANYjAnvR2QXnQA-28" target="O2gGplANYjAnvR2QXnQA-25">
          <mxGeometry width="50" height="50" relative="1" as="geometry">
            <mxPoint x="70" y="965.5172413793103" as="sourcePoint" />
            <mxPoint x="-140" y="56.321839080459775" as="targetPoint" />
          </mxGeometry>
        </mxCell>
        <mxCell id="O2gGplANYjAnvR2QXnQA-27" value="" style="endArrow=none;dashed=1;html=1;rounded=0;entryX=0.5;entryY=1;entryDx=0;entryDy=0;strokeWidth=3;" edge="1" parent="O2gGplANYjAnvR2QXnQA-24" target="O2gGplANYjAnvR2QXnQA-28">
          <mxGeometry width="50" height="50" relative="1" as="geometry">
            <mxPoint x="70" y="1600" as="sourcePoint" />
            <mxPoint x="70" y="48.275862068965516" as="targetPoint" />
          </mxGeometry>
        </mxCell>
        <mxCell id="O2gGplANYjAnvR2QXnQA-28" value="" style="rounded=0;whiteSpace=wrap;html=1;movable=1;resizable=1;rotatable=1;deletable=1;editable=1;locked=0;connectable=1;" vertex="1" parent="O2gGplANYjAnvR2QXnQA-24">
          <mxGeometry x="62.5" y="88.50574712643679" width="15" height="1311.4942528735633" as="geometry" />
        </mxCell>
        <mxCell id="O2gGplANYjAnvR2QXnQA-70" value="" style="rounded=0;whiteSpace=wrap;html=1;strokeColor=#FAFCF9;" vertex="1" parent="1">
          <mxGeometry x="257.31" y="270" width="290" height="10" as="geometry" />
        </mxCell>
        <mxCell id="O2gGplANYjAnvR2QXnQA-60" value="" style="group;movable=0;resizable=0;rotatable=0;deletable=0;editable=0;locked=1;connectable=0;" vertex="1" connectable="0" parent="1">
          <mxGeometry x="620" y="40" width="140" height="1440" as="geometry" />
        </mxCell>
        <mxCell id="O2gGplANYjAnvR2QXnQA-61" value="&lt;b&gt;EditorUIManager&lt;/b&gt;" style="rounded=0;whiteSpace=wrap;html=1;movable=0;resizable=0;rotatable=0;deletable=0;editable=0;locked=1;connectable=0;" vertex="1" parent="O2gGplANYjAnvR2QXnQA-60">
          <mxGeometry width="140" height="60" as="geometry" />
        </mxCell>
        <mxCell id="O2gGplANYjAnvR2QXnQA-62" value="" style="endArrow=none;dashed=1;html=1;rounded=0;entryX=0.5;entryY=1;entryDx=0;entryDy=0;strokeWidth=3;" edge="1" parent="O2gGplANYjAnvR2QXnQA-60" source="O2gGplANYjAnvR2QXnQA-64" target="O2gGplANYjAnvR2QXnQA-61">
          <mxGeometry width="50" height="50" relative="1" as="geometry">
            <mxPoint x="70" y="993.1034482758621" as="sourcePoint" />
            <mxPoint x="-140" y="57.93103448275862" as="targetPoint" />
          </mxGeometry>
        </mxCell>
        <mxCell id="O2gGplANYjAnvR2QXnQA-63" value="" style="endArrow=none;dashed=1;html=1;rounded=0;entryX=0.5;entryY=1;entryDx=0;entryDy=0;strokeWidth=3;" edge="1" parent="O2gGplANYjAnvR2QXnQA-60" target="O2gGplANYjAnvR2QXnQA-64">
          <mxGeometry width="50" height="50" relative="1" as="geometry">
            <mxPoint x="70" y="1600" as="sourcePoint" />
            <mxPoint x="70" y="49.6551724137931" as="targetPoint" />
          </mxGeometry>
        </mxCell>
        <mxCell id="O2gGplANYjAnvR2QXnQA-64" value="" style="rounded=0;whiteSpace=wrap;html=1;" vertex="1" parent="O2gGplANYjAnvR2QXnQA-60">
          <mxGeometry x="65" y="173.79310344827587" width="10" height="1266.2068965517242" as="geometry" />
        </mxCell>
        <mxCell id="O2gGplANYjAnvR2QXnQA-71" value="&lt;font style=&quot;font-size: 16px;&quot;&gt;initialize()&lt;/font&gt;" style="text;html=1;align=center;verticalAlign=middle;whiteSpace=wrap;rounded=0;" vertex="1" parent="1">
          <mxGeometry x="550" y="240" width="110" height="30" as="geometry" />
        </mxCell>
        <mxCell id="O2gGplANYjAnvR2QXnQA-49" value="" style="rounded=0;whiteSpace=wrap;html=1;strokeColor=#FAFCF9;" vertex="1" parent="1">
          <mxGeometry x="263.75" y="220" width="70" height="10" as="geometry" />
        </mxCell>
        <mxCell id="O2gGplANYjAnvR2QXnQA-51" value="" style="html=1;verticalAlign=bottom;labelBackgroundColor=none;endArrow=block;endFill=1;rounded=0;movable=1;resizable=1;rotatable=1;deletable=1;editable=1;locked=0;connectable=1;exitX=0.902;exitY=0.074;exitDx=0;exitDy=0;exitPerimeter=0;entryX=0.059;entryY=0.028;entryDx=0;entryDy=0;entryPerimeter=0;" edge="1" parent="1" source="O2gGplANYjAnvR2QXnQA-3" target="O2gGplANYjAnvR2QXnQA-20">
          <mxGeometry width="160" relative="1" as="geometry">
            <mxPoint x="140" y="230" as="sourcePoint" />
            <mxPoint x="460" y="228" as="targetPoint" />
          </mxGeometry>
        </mxCell>
        <mxCell id="O2gGplANYjAnvR2QXnQA-76" value="" style="html=1;verticalAlign=bottom;labelBackgroundColor=none;endArrow=block;endFill=1;rounded=0;exitX=0.902;exitY=0.108;exitDx=0;exitDy=0;exitPerimeter=0;entryX=-0.05;entryY=0.048;entryDx=0;entryDy=0;entryPerimeter=0;movable=1;resizable=1;rotatable=1;deletable=1;editable=1;locked=0;connectable=1;" edge="1" parent="1" source="O2gGplANYjAnvR2QXnQA-3" target="O2gGplANYjAnvR2QXnQA-64">
          <mxGeometry width="160" relative="1" as="geometry">
            <mxPoint x="106" y="233" as="sourcePoint" />
            <mxPoint x="575" y="233" as="targetPoint" />
          </mxGeometry>
        </mxCell>
        <mxCell id="O2gGplANYjAnvR2QXnQA-29" value="" style="rounded=0;whiteSpace=wrap;html=1;strokeColor=#FAFCF9;" vertex="1" parent="1">
          <mxGeometry x="257.5" y="587.5" width="65" height="12.5" as="geometry" />
        </mxCell>
        <mxCell id="O2gGplANYjAnvR2QXnQA-32" value="" style="html=1;verticalAlign=bottom;labelBackgroundColor=none;endArrow=block;endFill=1;rounded=0;movable=1;resizable=1;rotatable=1;deletable=1;editable=1;locked=0;connectable=1;entryX=-0.047;entryY=0.302;entryDx=0;entryDy=0;entryPerimeter=0;exitX=0.928;exitY=0.338;exitDx=0;exitDy=0;exitPerimeter=0;" edge="1" parent="1" source="O2gGplANYjAnvR2QXnQA-3" target="O2gGplANYjAnvR2QXnQA-20">
          <mxGeometry width="160" relative="1" as="geometry">
            <mxPoint x="130" y="590" as="sourcePoint" />
            <mxPoint x="470" y="590" as="targetPoint" />
          </mxGeometry>
        </mxCell>
        <mxCell id="O2gGplANYjAnvR2QXnQA-33" value="&lt;font style=&quot;font-size: 16px;&quot;&gt;LogStartFrame()&lt;/font&gt;" style="text;html=1;align=center;verticalAlign=middle;whiteSpace=wrap;rounded=0;" vertex="1" parent="1">
          <mxGeometry x="340" y="557.5" width="100" height="30" as="geometry" />
        </mxCell>
        <mxCell id="O2gGplANYjAnvR2QXnQA-45" value="&lt;font style=&quot;font-size: 16px;&quot;&gt;Init()&lt;/font&gt;" style="text;html=1;align=center;verticalAlign=middle;whiteSpace=wrap;rounded=0;" vertex="1" parent="1">
          <mxGeometry x="170" y="140" width="110" height="30" as="geometry" />
        </mxCell>
        <mxCell id="O2gGplANYjAnvR2QXnQA-42" value="" style="html=1;verticalAlign=bottom;labelBackgroundColor=none;endArrow=block;endFill=1;rounded=0;exitX=0.949;exitY=0.038;exitDx=0;exitDy=0;exitPerimeter=0;entryX=-0.053;entryY=0.034;entryDx=0;entryDy=0;entryPerimeter=0;" edge="1" parent="1" source="O2gGplANYjAnvR2QXnQA-3" target="O2gGplANYjAnvR2QXnQA-28">
          <mxGeometry width="160" relative="1" as="geometry">
            <mxPoint x="110" y="170" as="sourcePoint" />
            <mxPoint x="200" y="190" as="targetPoint" />
          </mxGeometry>
        </mxCell>
        <mxCell id="O2gGplANYjAnvR2QXnQA-78" value="&lt;b&gt;Loop&lt;/b&gt;" style="shape=umlFrame;whiteSpace=wrap;html=1;pointerEvents=0;recursiveResize=0;container=1;collapsible=0;width=70;height=30;movable=0;resizable=0;rotatable=0;deletable=0;editable=0;locked=1;connectable=0;" vertex="1" parent="1">
          <mxGeometry y="300" width="240" height="150" as="geometry" />
        </mxCell>
        <mxCell id="O2gGplANYjAnvR2QXnQA-79" value="" style="html=1;verticalAlign=bottom;labelBackgroundColor=none;endArrow=block;endFill=1;rounded=0;entryX=0.855;entryY=0.185;entryDx=0;entryDy=0;entryPerimeter=0;movable=1;resizable=1;rotatable=1;deletable=1;editable=1;locked=0;connectable=1;" edge="1" parent="1" target="O2gGplANYjAnvR2QXnQA-3">
          <mxGeometry width="160" relative="1" as="geometry">
            <mxPoint x="180" y="380" as="sourcePoint" />
            <mxPoint x="93.24999999999977" y="399.23" as="targetPoint" />
          </mxGeometry>
        </mxCell>
        <mxCell id="O2gGplANYjAnvR2QXnQA-80" value="" style="endArrow=none;html=1;rounded=0;" edge="1" parent="1">
          <mxGeometry width="50" height="50" relative="1" as="geometry">
            <mxPoint x="180" y="350" as="sourcePoint" />
            <mxPoint x="180" y="380" as="targetPoint" />
          </mxGeometry>
        </mxCell>
        <mxCell id="O2gGplANYjAnvR2QXnQA-81" value="" style="endArrow=none;html=1;rounded=0;exitX=1.214;exitY=0.243;exitDx=0;exitDy=0;exitPerimeter=0;" edge="1" parent="1">
          <mxGeometry width="50" height="50" relative="1" as="geometry">
            <mxPoint x="97.13999999999987" y="350.01" as="sourcePoint" />
            <mxPoint x="180" y="350" as="targetPoint" />
          </mxGeometry>
        </mxCell>
        <mxCell id="O2gGplANYjAnvR2QXnQA-82" value="&lt;font style=&quot;font-size: 16px;&quot;&gt;set up objs&lt;br&gt;&lt;/font&gt;" style="text;html=1;align=center;verticalAlign=middle;whiteSpace=wrap;rounded=0;" vertex="1" parent="1">
          <mxGeometry x="120" y="310" width="84.61538461538461" height="30" as="geometry" />
        </mxCell>
        <mxCell id="O2gGplANYjAnvR2QXnQA-83" value="&lt;i&gt;&lt;font style=&quot;font-size: 16px;&quot;&gt;return isInitialized&lt;/font&gt;&lt;/i&gt;" style="endArrow=open;startArrow=none;endFill=0;startFill=0;endSize=8;html=1;verticalAlign=bottom;dashed=1;labelBackgroundColor=none;rounded=0;exitX=0.05;exitY=0.255;exitDx=0;exitDy=0;exitPerimeter=0;entryX=1.094;entryY=0.241;entryDx=0;entryDy=0;entryPerimeter=0;" edge="1" parent="1" source="O2gGplANYjAnvR2QXnQA-3" target="O2gGplANYjAnvR2QXnQA-10">
          <mxGeometry x="0.007" width="160" relative="1" as="geometry">
            <mxPoint x="-110" y="480" as="sourcePoint" />
            <mxPoint x="50" y="480" as="targetPoint" />
            <mxPoint as="offset" />
          </mxGeometry>
        </mxCell>
        <mxCell id="O2gGplANYjAnvR2QXnQA-50" value="&lt;font style=&quot;font-size: 16px;&quot;&gt;Initialize()&lt;/font&gt;" style="text;html=1;align=center;verticalAlign=middle;whiteSpace=wrap;rounded=0;" vertex="1" parent="1">
          <mxGeometry x="360" y="190" width="84.61538461538461" height="30" as="geometry" />
        </mxCell>
        <mxCell id="O2gGplANYjAnvR2QXnQA-84" value="" style="group;movable=1;resizable=1;rotatable=1;deletable=1;editable=1;locked=0;connectable=1;" vertex="1" connectable="0" parent="1">
          <mxGeometry x="820" y="40" width="140" height="1400" as="geometry" />
        </mxCell>
        <mxCell id="O2gGplANYjAnvR2QXnQA-85" value="&lt;b&gt;SwapChain&lt;/b&gt;" style="rounded=0;whiteSpace=wrap;html=1;movable=1;resizable=1;rotatable=1;deletable=1;editable=1;locked=0;connectable=1;" vertex="1" parent="O2gGplANYjAnvR2QXnQA-84">
          <mxGeometry width="140" height="60" as="geometry" />
        </mxCell>
        <mxCell id="O2gGplANYjAnvR2QXnQA-86" value="" style="endArrow=none;dashed=1;html=1;rounded=0;entryX=0.5;entryY=1;entryDx=0;entryDy=0;strokeWidth=3;" edge="1" parent="O2gGplANYjAnvR2QXnQA-84" source="O2gGplANYjAnvR2QXnQA-88" target="O2gGplANYjAnvR2QXnQA-85">
          <mxGeometry width="50" height="50" relative="1" as="geometry">
            <mxPoint x="70" y="965.5172413793103" as="sourcePoint" />
            <mxPoint x="-140" y="56.321839080459775" as="targetPoint" />
          </mxGeometry>
        </mxCell>
        <mxCell id="O2gGplANYjAnvR2QXnQA-87" value="" style="endArrow=none;dashed=1;html=1;rounded=0;entryX=0.5;entryY=1;entryDx=0;entryDy=0;strokeWidth=3;" edge="1" parent="O2gGplANYjAnvR2QXnQA-84" target="O2gGplANYjAnvR2QXnQA-88">
          <mxGeometry width="50" height="50" relative="1" as="geometry">
            <mxPoint x="70" y="1600" as="sourcePoint" />
            <mxPoint x="70" y="48.275862068965516" as="targetPoint" />
          </mxGeometry>
        </mxCell>
        <mxCell id="O2gGplANYjAnvR2QXnQA-88" value="" style="rounded=0;whiteSpace=wrap;html=1;" vertex="1" parent="O2gGplANYjAnvR2QXnQA-84">
          <mxGeometry x="65" y="80.45977011494253" width="10" height="1319.5402298850574" as="geometry" />
        </mxCell>
        <mxCell id="O2gGplANYjAnvR2QXnQA-89" value="" style="group;movable=1;resizable=1;rotatable=1;deletable=1;editable=1;locked=0;connectable=1;" vertex="1" connectable="0" parent="1">
          <mxGeometry x="1020" y="40" width="140" height="1490" as="geometry" />
        </mxCell>
        <mxCell id="O2gGplANYjAnvR2QXnQA-90" value="&lt;b&gt;GameObjectManager&lt;/b&gt;" style="rounded=0;whiteSpace=wrap;html=1;movable=1;resizable=1;rotatable=1;deletable=1;editable=1;locked=0;connectable=1;" vertex="1" parent="O2gGplANYjAnvR2QXnQA-89">
          <mxGeometry width="140" height="60" as="geometry" />
        </mxCell>
        <mxCell id="O2gGplANYjAnvR2QXnQA-91" value="" style="endArrow=none;dashed=1;html=1;rounded=0;entryX=0.5;entryY=1;entryDx=0;entryDy=0;strokeWidth=3;" edge="1" parent="O2gGplANYjAnvR2QXnQA-89" source="O2gGplANYjAnvR2QXnQA-93" target="O2gGplANYjAnvR2QXnQA-90">
          <mxGeometry width="50" height="50" relative="1" as="geometry">
            <mxPoint x="70" y="1027.5862068965516" as="sourcePoint" />
            <mxPoint x="-140" y="59.94252873563219" as="targetPoint" />
          </mxGeometry>
        </mxCell>
        <mxCell id="O2gGplANYjAnvR2QXnQA-92" value="" style="endArrow=none;dashed=1;html=1;rounded=0;entryX=0.5;entryY=1;entryDx=0;entryDy=0;strokeWidth=3;" edge="1" parent="O2gGplANYjAnvR2QXnQA-89" target="O2gGplANYjAnvR2QXnQA-93">
          <mxGeometry width="50" height="50" relative="1" as="geometry">
            <mxPoint x="70" y="1600" as="sourcePoint" />
            <mxPoint x="70" y="51.37931034482759" as="targetPoint" />
          </mxGeometry>
        </mxCell>
        <mxCell id="O2gGplANYjAnvR2QXnQA-93" value="" style="rounded=0;whiteSpace=wrap;html=1;" vertex="1" parent="O2gGplANYjAnvR2QXnQA-89">
          <mxGeometry x="65" y="291.14942528735634" width="10" height="1198.8505747126437" as="geometry" />
        </mxCell>
        <mxCell id="O2gGplANYjAnvR2QXnQA-95" value="" style="rounded=0;whiteSpace=wrap;html=1;strokeColor=#FAFCF9;" vertex="1" parent="1">
          <mxGeometry x="257.5" y="610" width="452.5" height="5" as="geometry" />
        </mxCell>
        <mxCell id="O2gGplANYjAnvR2QXnQA-94" value="" style="html=1;verticalAlign=bottom;labelBackgroundColor=none;endArrow=block;endFill=1;rounded=0;movable=1;resizable=1;rotatable=1;deletable=1;editable=1;locked=0;connectable=1;entryX=-0.113;entryY=0.372;entryDx=0;entryDy=0;entryPerimeter=0;exitX=1.044;exitY=0.35;exitDx=0;exitDy=0;exitPerimeter=0;" edge="1" parent="1" source="O2gGplANYjAnvR2QXnQA-3" target="O2gGplANYjAnvR2QXnQA-88">
          <mxGeometry width="160" relative="1" as="geometry">
            <mxPoint x="110" y="620" as="sourcePoint" />
            <mxPoint x="860" y="620" as="targetPoint" />
          </mxGeometry>
        </mxCell>
        <mxCell id="O2gGplANYjAnvR2QXnQA-96" value="&lt;font style=&quot;font-size: 16px;&quot;&gt;ClearBuffer()&lt;/font&gt;" style="text;html=1;align=center;verticalAlign=middle;whiteSpace=wrap;rounded=0;" vertex="1" parent="1">
          <mxGeometry x="750" y="580" width="100" height="30" as="geometry" />
        </mxCell>
        <mxCell id="O2gGplANYjAnvR2QXnQA-99" value="" style="rounded=0;whiteSpace=wrap;html=1;strokeColor=#FAFCF9;" vertex="1" parent="1">
          <mxGeometry x="263.75" y="640" width="646.25" height="5" as="geometry" />
        </mxCell>
        <mxCell id="O2gGplANYjAnvR2QXnQA-98" value="" style="html=1;verticalAlign=bottom;labelBackgroundColor=none;endArrow=block;endFill=1;rounded=0;movable=1;resizable=1;rotatable=1;deletable=1;editable=1;locked=0;connectable=1;entryX=-0.05;entryY=0.259;entryDx=0;entryDy=0;entryPerimeter=0;exitX=1.044;exitY=0.371;exitDx=0;exitDy=0;exitPerimeter=0;" edge="1" parent="1" source="O2gGplANYjAnvR2QXnQA-3" target="O2gGplANYjAnvR2QXnQA-93">
          <mxGeometry width="160" relative="1" as="geometry">
            <mxPoint x="140" y="660" as="sourcePoint" />
            <mxPoint x="1060" y="640" as="targetPoint" />
          </mxGeometry>
        </mxCell>
        <mxCell id="O2gGplANYjAnvR2QXnQA-100" value="&lt;font style=&quot;font-size: 16px;&quot;&gt;Update()&lt;/font&gt;" style="text;html=1;align=center;verticalAlign=middle;whiteSpace=wrap;rounded=0;" vertex="1" parent="1">
          <mxGeometry x="950" y="610" width="100" height="30" as="geometry" />
        </mxCell>
        <mxCell id="O2gGplANYjAnvR2QXnQA-102" value="" style="endArrow=none;html=1;rounded=0;exitX=1.214;exitY=0.243;exitDx=0;exitDy=0;exitPerimeter=0;" edge="1" parent="1">
          <mxGeometry width="50" height="50" relative="1" as="geometry">
            <mxPoint x="1097.1399999999999" y="720.01" as="sourcePoint" />
            <mxPoint x="1180" y="720" as="targetPoint" />
          </mxGeometry>
        </mxCell>
        <mxCell id="O2gGplANYjAnvR2QXnQA-103" value="" style="endArrow=none;html=1;rounded=0;" edge="1" parent="1">
          <mxGeometry width="50" height="50" relative="1" as="geometry">
            <mxPoint x="1180" y="720" as="sourcePoint" />
            <mxPoint x="1180" y="770" as="targetPoint" />
          </mxGeometry>
        </mxCell>
        <mxCell id="O2gGplANYjAnvR2QXnQA-104" value="" style="html=1;verticalAlign=bottom;labelBackgroundColor=none;endArrow=block;endFill=1;rounded=0;entryX=0.825;entryY=0.289;entryDx=0;entryDy=0;entryPerimeter=0;movable=1;resizable=1;rotatable=1;deletable=1;editable=1;locked=0;connectable=1;" edge="1" parent="1">
          <mxGeometry width="160" relative="1" as="geometry">
            <mxPoint x="1180" y="770" as="sourcePoint" />
            <mxPoint x="1093.2499999999998" y="769.23" as="targetPoint" />
          </mxGeometry>
        </mxCell>
        <mxCell id="O2gGplANYjAnvR2QXnQA-106" value="&lt;b&gt;Loop&lt;/b&gt;" style="shape=umlFrame;whiteSpace=wrap;html=1;pointerEvents=0;recursiveResize=0;container=1;collapsible=0;width=70;height=30;movable=1;resizable=1;rotatable=1;deletable=1;editable=1;locked=0;connectable=1;" vertex="1" parent="1">
          <mxGeometry x="1000" y="670" width="300" height="120" as="geometry" />
        </mxCell>
        <mxCell id="O2gGplANYjAnvR2QXnQA-105" value="&lt;font style=&quot;font-size: 16px;&quot;&gt;call Update() foreach obj&lt;br&gt;&lt;/font&gt;" style="text;html=1;align=center;verticalAlign=middle;whiteSpace=wrap;rounded=0;" vertex="1" parent="O2gGplANYjAnvR2QXnQA-106">
          <mxGeometry x="110" y="10" width="180" height="30" as="geometry" />
        </mxCell>
        <mxCell id="O2gGplANYjAnvR2QXnQA-107" value="&lt;font style=&quot;font-size: 16px;&quot;&gt;Draw()&lt;/font&gt;" style="text;html=1;align=center;verticalAlign=middle;whiteSpace=wrap;rounded=0;" vertex="1" parent="1">
          <mxGeometry x="950" y="810" width="100" height="30" as="geometry" />
        </mxCell>
        <mxCell id="O2gGplANYjAnvR2QXnQA-108" value="" style="rounded=0;whiteSpace=wrap;html=1;strokeColor=#FAFCF9;" vertex="1" parent="1">
          <mxGeometry x="263.75" y="840" width="646.25" height="5" as="geometry" />
        </mxCell>
        <mxCell id="O2gGplANYjAnvR2QXnQA-109" value="" style="html=1;verticalAlign=bottom;labelBackgroundColor=none;endArrow=block;endFill=1;rounded=0;movable=1;resizable=1;rotatable=1;deletable=1;editable=1;locked=0;connectable=1;exitX=0.949;exitY=0.513;exitDx=0;exitDy=0;exitPerimeter=0;entryX=0.075;entryY=0.427;entryDx=0;entryDy=0;entryPerimeter=0;" edge="1" parent="1" source="O2gGplANYjAnvR2QXnQA-3" target="O2gGplANYjAnvR2QXnQA-93">
          <mxGeometry width="160" relative="1" as="geometry">
            <mxPoint x="160" y="860" as="sourcePoint" />
            <mxPoint x="1084" y="727" as="targetPoint" />
          </mxGeometry>
        </mxCell>
        <mxCell id="O2gGplANYjAnvR2QXnQA-110" value="" style="html=1;verticalAlign=bottom;labelBackgroundColor=none;endArrow=block;endFill=1;rounded=0;entryX=0.825;entryY=0.289;entryDx=0;entryDy=0;entryPerimeter=0;movable=1;resizable=1;rotatable=1;deletable=1;editable=1;locked=0;connectable=1;" edge="1" parent="1">
          <mxGeometry width="160" relative="1" as="geometry">
            <mxPoint x="1180" y="960" as="sourcePoint" />
            <mxPoint x="1093.2499999999998" y="959.23" as="targetPoint" />
          </mxGeometry>
        </mxCell>
        <mxCell id="O2gGplANYjAnvR2QXnQA-111" value="" style="endArrow=none;html=1;rounded=0;" edge="1" parent="1">
          <mxGeometry width="50" height="50" relative="1" as="geometry">
            <mxPoint x="1180" y="910" as="sourcePoint" />
            <mxPoint x="1180" y="960" as="targetPoint" />
          </mxGeometry>
        </mxCell>
        <mxCell id="O2gGplANYjAnvR2QXnQA-112" value="" style="endArrow=none;html=1;rounded=0;exitX=1.214;exitY=0.243;exitDx=0;exitDy=0;exitPerimeter=0;" edge="1" parent="1">
          <mxGeometry width="50" height="50" relative="1" as="geometry">
            <mxPoint x="1097.1399999999999" y="910.01" as="sourcePoint" />
            <mxPoint x="1180" y="910" as="targetPoint" />
          </mxGeometry>
        </mxCell>
        <mxCell id="O2gGplANYjAnvR2QXnQA-113" value="&lt;b&gt;Loop&lt;/b&gt;" style="shape=umlFrame;whiteSpace=wrap;html=1;pointerEvents=0;recursiveResize=0;container=1;collapsible=0;width=70;height=30;movable=1;resizable=1;rotatable=1;deletable=1;editable=1;locked=0;connectable=1;" vertex="1" parent="1">
          <mxGeometry x="1000" y="860" width="300" height="120" as="geometry" />
        </mxCell>
        <mxCell id="O2gGplANYjAnvR2QXnQA-114" value="&lt;font style=&quot;font-size: 16px;&quot;&gt;call Draw() foreach obj&lt;br&gt;&lt;/font&gt;" style="text;html=1;align=center;verticalAlign=middle;whiteSpace=wrap;rounded=0;" vertex="1" parent="O2gGplANYjAnvR2QXnQA-113">
          <mxGeometry x="110" y="10" width="180" height="30" as="geometry" />
        </mxCell>
        <mxCell id="O2gGplANYjAnvR2QXnQA-115" value="&lt;font style=&quot;font-size: 16px;&quot;&gt;Update()&lt;/font&gt;" style="text;html=1;align=center;verticalAlign=middle;whiteSpace=wrap;rounded=0;" vertex="1" parent="1">
          <mxGeometry x="570" y="1000" width="100" height="30" as="geometry" />
        </mxCell>
        <mxCell id="O2gGplANYjAnvR2QXnQA-117" value="" style="rounded=0;whiteSpace=wrap;html=1;strokeColor=#FAFCF9;" vertex="1" parent="1">
          <mxGeometry x="270" y="1030" width="240" height="5" as="geometry" />
        </mxCell>
        <mxCell id="O2gGplANYjAnvR2QXnQA-118" value="" style="rounded=0;whiteSpace=wrap;html=1;strokeColor=#FAFCF9;" vertex="1" parent="1">
          <mxGeometry x="270" y="410" width="640" height="10" as="geometry" />
        </mxCell>
        <mxCell id="O2gGplANYjAnvR2QXnQA-120" value="" style="html=1;verticalAlign=bottom;labelBackgroundColor=none;endArrow=block;endFill=1;rounded=0;movable=1;resizable=1;rotatable=1;deletable=1;editable=1;locked=0;connectable=1;entryX=-0.175;entryY=0.071;entryDx=0;entryDy=0;entryPerimeter=0;exitX=0.949;exitY=0.209;exitDx=0;exitDy=0;exitPerimeter=0;" edge="1" parent="1" source="O2gGplANYjAnvR2QXnQA-3" target="O2gGplANYjAnvR2QXnQA-93">
          <mxGeometry width="160" relative="1" as="geometry">
            <mxPoint x="110" y="420" as="sourcePoint" />
            <mxPoint x="1050" y="430" as="targetPoint" />
          </mxGeometry>
        </mxCell>
        <mxCell id="O2gGplANYjAnvR2QXnQA-121" value="&lt;font style=&quot;font-size: 16px;&quot;&gt;AddObject()&lt;/font&gt;" style="text;html=1;align=center;verticalAlign=middle;whiteSpace=wrap;rounded=0;" vertex="1" parent="1">
          <mxGeometry x="940" y="380" width="110" height="30" as="geometry" />
        </mxCell>
        <mxCell id="O2gGplANYjAnvR2QXnQA-122" value="" style="html=1;verticalAlign=bottom;labelBackgroundColor=none;endArrow=block;endFill=1;rounded=0;movable=1;resizable=1;rotatable=1;deletable=1;editable=1;locked=0;connectable=1;exitX=0.807;exitY=0.647;exitDx=0;exitDy=0;exitPerimeter=0;entryX=0.012;entryY=0.646;entryDx=0;entryDy=0;entryPerimeter=0;" edge="1" parent="1" source="O2gGplANYjAnvR2QXnQA-3" target="O2gGplANYjAnvR2QXnQA-64">
          <mxGeometry width="160" relative="1" as="geometry">
            <mxPoint x="107" y="854" as="sourcePoint" />
            <mxPoint x="682" y="861" as="targetPoint" />
          </mxGeometry>
        </mxCell>
        <mxCell id="O2gGplANYjAnvR2QXnQA-123" value="&lt;b&gt;Loop&lt;/b&gt;" style="shape=umlFrame;whiteSpace=wrap;html=1;pointerEvents=0;recursiveResize=0;container=1;collapsible=0;width=70;height=30;movable=1;resizable=1;rotatable=1;deletable=1;editable=1;locked=0;connectable=1;" vertex="1" parent="1">
          <mxGeometry x="600" y="1050" width="250" height="150" as="geometry" />
        </mxCell>
        <mxCell id="O2gGplANYjAnvR2QXnQA-124" value="&lt;font style=&quot;font-size: 16px;&quot;&gt;call update() foreach Editor UI&lt;br&gt;&lt;/font&gt;" style="text;html=1;align=left;verticalAlign=middle;whiteSpace=wrap;rounded=0;" vertex="1" parent="O2gGplANYjAnvR2QXnQA-123">
          <mxGeometry x="110" y="10" width="130" height="60" as="geometry" />
        </mxCell>
        <mxCell id="O2gGplANYjAnvR2QXnQA-125" value="" style="endArrow=none;html=1;rounded=0;exitX=1.214;exitY=0.243;exitDx=0;exitDy=0;exitPerimeter=0;" edge="1" parent="1">
          <mxGeometry width="50" height="50" relative="1" as="geometry">
            <mxPoint x="697.1399999999999" y="1130.01" as="sourcePoint" />
            <mxPoint x="780" y="1130" as="targetPoint" />
          </mxGeometry>
        </mxCell>
        <mxCell id="O2gGplANYjAnvR2QXnQA-126" value="" style="endArrow=none;html=1;rounded=0;" edge="1" parent="1">
          <mxGeometry width="50" height="50" relative="1" as="geometry">
            <mxPoint x="780" y="1130" as="sourcePoint" />
            <mxPoint x="780" y="1180" as="targetPoint" />
          </mxGeometry>
        </mxCell>
        <mxCell id="O2gGplANYjAnvR2QXnQA-127" value="" style="html=1;verticalAlign=bottom;labelBackgroundColor=none;endArrow=block;endFill=1;rounded=0;entryX=0.825;entryY=0.289;entryDx=0;entryDy=0;entryPerimeter=0;movable=1;resizable=1;rotatable=1;deletable=1;editable=1;locked=0;connectable=1;" edge="1" parent="1">
          <mxGeometry width="160" relative="1" as="geometry">
            <mxPoint x="780" y="1180" as="sourcePoint" />
            <mxPoint x="693.2499999999998" y="1179.23" as="targetPoint" />
          </mxGeometry>
        </mxCell>
        <mxCell id="O2gGplANYjAnvR2QXnQA-128" value="" style="rounded=0;whiteSpace=wrap;html=1;strokeColor=#FAFCF9;" vertex="1" parent="1">
          <mxGeometry x="280" y="1250" width="430" height="5" as="geometry" />
        </mxCell>
        <mxCell id="O2gGplANYjAnvR2QXnQA-129" value="&lt;font style=&quot;font-size: 16px;&quot;&gt;Present()&lt;/font&gt;" style="text;html=1;align=center;verticalAlign=middle;whiteSpace=wrap;rounded=0;" vertex="1" parent="1">
          <mxGeometry x="750" y="1220" width="100" height="30" as="geometry" />
        </mxCell>
        <mxCell id="O2gGplANYjAnvR2QXnQA-130" value="" style="html=1;verticalAlign=bottom;labelBackgroundColor=none;endArrow=block;endFill=1;rounded=0;movable=1;resizable=1;rotatable=1;deletable=1;editable=1;locked=0;connectable=1;exitX=1.139;exitY=0.803;exitDx=0;exitDy=0;exitPerimeter=0;entryX=-0.05;entryY=0.858;entryDx=0;entryDy=0;entryPerimeter=0;" edge="1" parent="1" source="O2gGplANYjAnvR2QXnQA-3" target="O2gGplANYjAnvR2QXnQA-88">
          <mxGeometry width="160" relative="1" as="geometry">
            <mxPoint x="140" y="1240" as="sourcePoint" />
            <mxPoint x="860" y="1260" as="targetPoint" />
          </mxGeometry>
        </mxCell>
        <mxCell id="O2gGplANYjAnvR2QXnQA-131" value="" style="rounded=0;whiteSpace=wrap;html=1;strokeColor=#FAFCF9;" vertex="1" parent="1">
          <mxGeometry x="263.75" y="1300" width="50" height="5" as="geometry" />
        </mxCell>
        <mxCell id="O2gGplANYjAnvR2QXnQA-132" value="&lt;font style=&quot;font-size: 16px;&quot;&gt;LogEndFrame()&lt;/font&gt;" style="text;html=1;align=center;verticalAlign=middle;whiteSpace=wrap;rounded=0;" vertex="1" parent="1">
          <mxGeometry x="352.31" y="1265" width="100" height="30" as="geometry" />
        </mxCell>
        <mxCell id="O2gGplANYjAnvR2QXnQA-133" value="" style="html=1;verticalAlign=bottom;labelBackgroundColor=none;endArrow=block;endFill=1;rounded=0;movable=1;resizable=1;rotatable=1;deletable=1;editable=1;locked=0;connectable=1;exitX=0.949;exitY=0.84;exitDx=0;exitDy=0;exitPerimeter=0;entryX=-0.113;entryY=0.83;entryDx=0;entryDy=0;entryPerimeter=0;" edge="1" parent="1" source="O2gGplANYjAnvR2QXnQA-3" target="O2gGplANYjAnvR2QXnQA-20">
          <mxGeometry width="160" relative="1" as="geometry">
            <mxPoint x="100" y="1306" as="sourcePoint" />
            <mxPoint x="450" y="1300" as="targetPoint" />
          </mxGeometry>
        </mxCell>
        <mxCell id="O2gGplANYjAnvR2QXnQA-134" value="&lt;font style=&quot;font-size: 16px;&quot;&gt;Release()&lt;/font&gt;" style="html=1;verticalAlign=bottom;labelBackgroundColor=none;endArrow=block;endFill=1;endSize=6;align=left;rounded=0;entryX=-0.119;entryY=0.277;entryDx=0;entryDy=0;entryPerimeter=0;exitX=1.239;exitY=0.276;exitDx=0;exitDy=0;exitPerimeter=0;" edge="1" parent="1">
          <mxGeometry x="-0.2592" y="-1" relative="1" as="geometry">
            <mxPoint x="-141" y="1391" as="sourcePoint" />
            <mxPoint x="85" y="1390" as="targetPoint" />
            <mxPoint as="offset" />
          </mxGeometry>
        </mxCell>
        <mxCell id="O2gGplANYjAnvR2QXnQA-138" value="&lt;font style=&quot;font-size: 16px;&quot;&gt;Release()&lt;/font&gt;" style="text;html=1;align=center;verticalAlign=middle;whiteSpace=wrap;rounded=0;" vertex="1" parent="1">
          <mxGeometry x="140" y="1390" width="110" height="30" as="geometry" />
        </mxCell>
        <mxCell id="O2gGplANYjAnvR2QXnQA-139" value="" style="html=1;verticalAlign=bottom;labelBackgroundColor=none;endArrow=block;endFill=1;rounded=0;entryX=0.026;entryY=0.989;entryDx=0;entryDy=0;entryPerimeter=0;exitX=0.977;exitY=0.926;exitDx=0;exitDy=0;exitPerimeter=0;" edge="1" parent="1" source="O2gGplANYjAnvR2QXnQA-3" target="O2gGplANYjAnvR2QXnQA-28">
          <mxGeometry width="160" relative="1" as="geometry">
            <mxPoint x="110" y="1440" as="sourcePoint" />
            <mxPoint x="275" y="1424" as="targetPoint" />
          </mxGeometry>
        </mxCell>
        <mxCell id="O2gGplANYjAnvR2QXnQA-140" value="" style="rounded=0;whiteSpace=wrap;html=1;strokeColor=#FAFCF9;" vertex="1" parent="1">
          <mxGeometry x="270" y="1460" width="240" height="5" as="geometry" />
        </mxCell>
        <mxCell id="O2gGplANYjAnvR2QXnQA-144" value="" style="html=1;verticalAlign=bottom;labelBackgroundColor=none;endArrow=block;endFill=1;rounded=0;movable=1;resizable=1;rotatable=1;deletable=1;editable=1;locked=0;connectable=1;exitX=0.971;exitY=0.953;exitDx=0;exitDy=0;exitPerimeter=0;entryX=0.012;entryY=0.986;entryDx=0;entryDy=0;entryPerimeter=0;" edge="1" parent="1" source="O2gGplANYjAnvR2QXnQA-3" target="O2gGplANYjAnvR2QXnQA-64">
          <mxGeometry width="160" relative="1" as="geometry">
            <mxPoint x="85" y="1479.5" as="sourcePoint" />
            <mxPoint x="669" y="1477.5" as="targetPoint" />
          </mxGeometry>
        </mxCell>
        <mxCell id="O2gGplANYjAnvR2QXnQA-145" value="&lt;font style=&quot;font-size: 16px;&quot;&gt;destroy()&lt;/font&gt;" style="text;html=1;align=center;verticalAlign=middle;whiteSpace=wrap;rounded=0;" vertex="1" parent="1">
          <mxGeometry x="540" y="1435" width="100" height="30" as="geometry" />
        </mxCell>
        <mxCell id="O2gGplANYjAnvR2QXnQA-146" value="&lt;i&gt;&lt;font style=&quot;font-size: 16px;&quot;&gt;return isReleased&lt;/font&gt;&lt;/i&gt;" style="endArrow=open;startArrow=none;endFill=0;startFill=0;endSize=8;html=1;verticalAlign=bottom;dashed=1;labelBackgroundColor=none;rounded=0;exitX=0.203;exitY=0.218;exitDx=0;exitDy=0;exitPerimeter=0;entryX=0.98;entryY=0.217;entryDx=0;entryDy=0;entryPerimeter=0;" edge="1" parent="1">
          <mxGeometry x="0.007" width="160" relative="1" as="geometry">
            <mxPoint x="85" y="1510" as="sourcePoint" />
            <mxPoint x="-148" y="1510" as="targetPoint" />
            <mxPoint as="offset" />
          </mxGeometry>
        </mxCell>
      </root>
    </mxGraphModel>
  </diagram>
</mxfile>
